<?xml version="1.0" encoding="utf-8"?>
<COLLADA xmlns="http://www.collada.org/2005/11/COLLADASchema" version="1.4.1">
  <asset>
    <contributor>
      <authoring_tool>Fusion URDF/XACRO Exporter</authoring_tool>
    </contributor>
    <created>2026-05-04T15:59:37Z</created>
    <modified>2026-05-04T15:59:37Z</modified>
    <unit name="meter" meter="1.0"/>
    <up_axis>Z_UP</up_axis>
  </asset>
  <library_effects>
    <effect id="Opaque_128_0_0_-effect">
      <profile_COMMON>
        <technique sid="common">
          <lambert>
            <emission><color>0 0 0 1</color></emission>
            <ambient><color>0.0000 0.0000 0.0000 1</color></ambient>
            <diffuse><color>0.5020 0.0000 0.0000 1</color></diffuse>
            <reflective><color>0 0 0 1</color></reflective>
            <transparent opaque="A_ONE"><color>1 1 1 1</color></transparent>
            <transparency><float>1</float></transparency>
          </lambert>
        </technique>
      </profile_COMMON>
    </effect>
    <effect id="Steel_-_Satin-effect">
      <profile_COMMON>
        <technique sid="common">
          <lambert>
            <emission><color>0 0 0 1</color></emission>
            <ambient><color>0.0000 0.0000 0.0000 1</color></ambient>
            <diffuse><color>0.6275 0.6275 0.6275 1</color></diffuse>
            <reflective><color>0 0 0 1</color></reflective>
            <transparent opaque="A_ONE"><color>1 1 1 1</color></transparent>
            <transparency><float>1</float></transparency>
          </lambert>
        </technique>
      </profile_COMMON>
    </effect>
    <effect id="Opaque_192_192_192_-effect">
      <profile_COMMON>
        <technique sid="common">
          <lambert>
            <emission><color>0 0 0 1</color></emission>
            <ambient><color>0.0000 0.0000 0.0000 1</color></ambient>
            <diffuse><color>0.7529 0.7529 0.7529 1</color></diffuse>
            <reflective><color>0 0 0 1</color></reflective>
            <transparent opaque="A_ONE"><color>1 1 1 1</color></transparent>
            <transparency><float>1</float></transparency>
          </lambert>
        </technique>
      </profile_COMMON>
    </effect>
  </library_effects>
  <library_materials>
    <material id="Opaque_128_0_0_" name="Opaque(128,0,0)">
      <instance_effect url="#Opaque_128_0_0_-effect"/>
    </material>
    <material id="Steel_-_Satin" name="Steel_-_Satin">
      <instance_effect url="#Steel_-_Satin-effect"/>
    </material>
    <material id="Opaque_192_192_192_" name="Opaque(192,192,192)">
      <instance_effect url="#Opaque_192_192_192_-effect"/>
    </material>
  </library_materials>
  <library_geometries>
    <geometry id="base_link-mesh" name="base_link">
      <mesh>
        <source id="base_link-mesh-positions">
          <float_array id="base_link-mesh-positions-array" count="1173">0.000000 0.150000 0.339640 -0.020312 0.150000 0.339032 -0.040551 0.150000 0.337211 -0.060645 0.150000 0.334182 -0.080522 0.150000 0.329957 -0.100111 0.150000 0.324551 -0.119341 0.150000 0.317983 -0.138144 0.150000 0.310277 -0.156453 0.150000 0.301460 -0.174201 0.150000 0.291564 -0.191326 0.150000 0.280624 -0.207766 0.150000 0.268679 -0.223462 0.150000 0.255773 -0.238359 0.150000 0.241951 -0.252402 0.150000 0.227264 -0.265541 0.150000 0.211762 -0.277730 0.150000 0.195503 -0.288925 0.150000 0.178543 -0.299085 0.150000 0.160945 -0.308175 0.150000 0.142770 -0.316162 0.150000 0.124084 -0.323017 0.150000 0.104955 -0.328715 0.150000 0.085449 -0.333237 0.150000 0.065637 -0.336566 0.150000 0.045591 -0.338690 0.150000 0.025381 -0.339602 0.150000 0.005081 -0.339298 0.150000 -0.015238 -0.337779 0.150000 -0.035502 -0.335052 0.150000 -0.055639 -0.331125 0.150000 -0.075577 -0.326012 0.150000 -0.095244 -0.319733 0.150000 -0.114571 -0.312308 0.150000 -0.133487 -0.303766 0.150000 -0.151925 -0.294137 0.150000 -0.169820 -0.283454 0.150000 -0.187107 -0.271757 0.150000 -0.203724 -0.259087 0.150000 -0.219611 -0.245490 0.150000 -0.234713 -0.231014 0.150000 -0.248974 -0.215711 0.150000 -0.262344 -0.199635 0.150000 -0.274775 -0.182845 0.150000 -0.286222 -0.165401 0.150000 -0.296644 -0.147364 0.150000 -0.306005 -0.128800 0.150000 -0.314270 -0.109775 0.150000 -0.321411 -0.090357 0.150000 -0.327400 -0.070615 0.150000 -0.332218 -0.050621 0.150000 -0.335847 -0.030445 0.150000 -0.338273 -0.010160 0.150000 -0.339488 0.010160 0.150000 -0.339488 0.030445 0.150000 -0.338273 0.050621 0.150000 -0.335847 0.070615 0.150000 -0.332218 0.090357 0.150000 -0.327400 0.109775 0.150000 -0.321411 0.128800 0.150000 -0.314270 0.147364 0.150000 -0.306005 0.165401 0.150000 -0.296644 0.182845 0.150000 -0.286222 0.199635 0.150000 -0.274775 0.215711 0.150000 -0.262344 0.231014 0.150000 -0.248974 0.245490 0.150000 -0.234713 0.259087 0.150000 -0.219611 0.271757 0.150000 -0.203724 0.283454 0.150000 -0.187107 0.294137 0.150000 -0.169820 0.303766 0.150000 -0.151925 0.312308 0.150000 -0.133487 0.319733 0.150000 -0.114571 0.326012 0.150000 -0.095244 0.331125 0.150000 -0.075577 0.335052 0.150000 -0.055639 0.337779 0.150000 -0.035502 0.339298 0.150000 -0.015238 0.339602 0.150000 0.005081 0.338690 0.150000 0.025381 0.336566 0.150000 0.045591 0.333237 0.150000 0.065637 0.328715 0.150000 0.085449 0.323017 0.150000 0.104955 0.316162 0.150000 0.124084 0.308175 0.150000 0.142770 0.299085 0.150000 0.160945 0.288925 0.150000 0.178543 0.277730 0.150000 0.195503 0.265541 0.150000 0.211762 0.252402 0.150000 0.227264 0.238359 0.150000 0.241951 0.223462 0.150000 0.255773 0.207766 0.150000 0.268679 0.191326 0.150000 0.280624 0.174201 0.150000 0.291564 0.156453 0.150000 0.301460 0.138144 0.150000 0.310277 0.119341 0.150000 0.317983 0.100111 0.150000 0.324551 0.080522 0.150000 0.329957 0.060645 0.150000 0.334182 0.040551 0.150000 0.337211 0.020312 0.150000 0.339032 0.000000 0.000000 0.339640 0.020312 0.000000 0.339032 0.040551 0.000000 0.337211 0.060645 0.000000 0.334182 0.080522 0.000000 0.329957 0.100111 0.000000 0.324551 0.119341 0.000000 0.317983 0.138144 0.000000 0.310277 0.156453 0.000000 0.301460 0.174201 0.000000 0.291564 0.191326 0.000000 0.280624 0.207766 0.000000 0.268679 0.223462 0.000000 0.255773 0.238359 0.000000 0.241951 0.252402 0.000000 0.227264 0.265541 0.000000 0.211762 0.277730 0.000000 0.195503 0.288925 0.000000 0.178543 0.299085 0.000000 0.160945 0.308175 0.000000 0.142770 0.316162 0.000000 0.124084 0.323017 0.000000 0.104955 0.328715 0.000000 0.085449 0.333237 0.000000 0.065637 0.336566 0.000000 0.045591 0.338690 0.000000 0.025381 0.339602 0.000000 0.005081 0.339298 0.000000 -0.015238 0.337779 0.000000 -0.035502 0.335052 0.000000 -0.055639 0.331125 0.000000 -0.075577 0.326012 0.000000 -0.095244 0.319733 0.000000 -0.114571 0.312308 0.000000 -0.133487 0.303766 0.000000 -0.151925 0.294137 0.000000 -0.169820 0.283454 0.000000 -0.187107 0.271757 0.000000 -0.203724 0.259087 0.000000 -0.219611 0.245490 0.000000 -0.234713 0.231014 0.000000 -0.248974 0.215711 0.000000 -0.262344 0.199635 0.000000 -0.274775 0.182845 0.000000 -0.286222 0.165401 0.000000 -0.296644 0.147364 0.000000 -0.306005 0.128800 0.000000 -0.314270 0.109775 0.000000 -0.321411 0.090357 0.000000 -0.327400 0.070615 0.000000 -0.332218 0.050621 0.000000 -0.335847 0.030445 0.000000 -0.338273 0.010160 0.000000 -0.339488 -0.010160 0.000000 -0.339488 -0.030445 0.000000 -0.338273 -0.050621 0.000000 -0.335847 -0.070615 0.000000 -0.332218 -0.090357 0.000000 -0.327400 -0.109775 0.000000 -0.321411 -0.128800 0.000000 -0.314270 -0.147364 0.000000 -0.306005 -0.165401 0.000000 -0.296644 -0.182845 0.000000 -0.286222 -0.199635 0.000000 -0.274775 -0.215711 0.000000 -0.262344 -0.231014 0.000000 -0.248974 -0.245490 0.000000 -0.234713 -0.259087 0.000000 -0.219611 -0.271757 0.000000 -0.203724 -0.283454 0.000000 -0.187107 -0.294137 0.000000 -0.169820 -0.303766 0.000000 -0.151925 -0.312308 0.000000 -0.133487 -0.319733 0.000000 -0.114571 -0.326012 0.000000 -0.095244 -0.331125 0.000000 -0.075577 -0.335052 0.000000 -0.055639 -0.337779 0.000000 -0.035502 -0.339298 0.000000 -0.015238 -0.339602 0.000000 0.005081 -0.338690 0.000000 0.025381 -0.336566 0.000000 0.045591 -0.333237 0.000000 0.065637 -0.328715 0.000000 0.085449 -0.323017 0.000000 0.104955 -0.316162 0.000000 0.124084 -0.308175 0.000000 0.142770 -0.299085 0.000000 0.160945 -0.288925 0.000000 0.178543 -0.277730 0.000000 0.195503 -0.265541 0.000000 0.211762 -0.252402 0.000000 0.227264 -0.238359 0.000000 0.241951 -0.223462 0.000000 0.255773 -0.207766 0.000000 0.268679 -0.191326 0.000000 0.280624 -0.174201 0.000000 0.291564 -0.156453 0.000000 0.301460 -0.138144 0.000000 0.310277 -0.119341 0.000000 0.317983 -0.100111 0.000000 0.324551 -0.080522 0.000000 0.329957 -0.060645 0.000000 0.334182 -0.040551 0.000000 0.337211 -0.020312 0.000000 0.339032 0.000000 0.150000 0.259640 -0.017718 0.150000 0.259035 -0.035354 0.150000 0.257222 -0.052825 0.150000 0.254209 -0.070050 0.150000 0.250012 -0.086948 0.150000 0.244649 -0.103441 0.150000 0.238145 -0.119451 0.150000 0.230531 -0.134905 0.150000 0.221841 -0.149729 0.150000 0.212118 -0.163856 0.150000 0.201406 -0.177218 0.150000 0.189754 -0.189754 0.150000 0.177218 -0.201406 0.150000 0.163856 -0.212118 0.150000 0.149729 -0.221841 0.150000 0.134905 -0.230531 0.150000 0.119451 -0.238145 0.150000 0.103441 -0.244649 0.150000 0.086948 -0.250012 0.150000 0.070050 -0.254209 0.150000 0.052825 -0.257222 0.150000 0.035354 -0.259035 0.150000 0.017718 -0.259640 0.150000 -0.000000 -0.259035 0.150000 -0.017718 -0.257222 0.150000 -0.035354 -0.254209 0.150000 -0.052825 -0.250012 0.150000 -0.070050 -0.244649 0.150000 -0.086948 -0.238145 0.150000 -0.103441 -0.230531 0.150000 -0.119451 -0.221841 0.150000 -0.134905 -0.212118 0.150000 -0.149729 -0.201406 0.150000 -0.163856 -0.189754 0.150000 -0.177218 -0.177218 0.150000 -0.189754 -0.163856 0.150000 -0.201406 -0.149729 0.150000 -0.212118 -0.134905 0.150000 -0.221841 -0.119451 0.150000 -0.230531 -0.103441 0.150000 -0.238145 -0.086948 0.150000 -0.244649 -0.070050 0.150000 -0.250012 -0.052825 0.150000 -0.254209 -0.035354 0.150000 -0.257222 -0.017718 0.150000 -0.259035 0.000000 0.150000 -0.259640 0.017718 0.150000 -0.259035 0.035354 0.150000 -0.257222 0.052825 0.150000 -0.254209 0.070050 0.150000 -0.250012 0.086948 0.150000 -0.244649 0.103441 0.150000 -0.238145 0.119451 0.150000 -0.230531 0.134905 0.150000 -0.221841 0.149729 0.150000 -0.212118 0.163856 0.150000 -0.201406 0.177218 0.150000 -0.189754 0.189754 0.150000 -0.177218 0.201406 0.150000 -0.163856 0.212118 0.150000 -0.149729 0.221841 0.150000 -0.134905 0.230531 0.150000 -0.119451 0.238145 0.150000 -0.103441 0.244649 0.150000 -0.086948 0.250012 0.150000 -0.070050 0.254209 0.150000 -0.052825 0.257222 0.150000 -0.035354 0.259035 0.150000 -0.017718 0.259640 0.150000 0.000000 0.259035 0.150000 0.017718 0.257222 0.150000 0.035354 0.254209 0.150000 0.052825 0.250012 0.150000 0.070050 0.244649 0.150000 0.086948 0.238145 0.150000 0.103441 0.230531 0.150000 0.119451 0.221841 0.150000 0.134905 0.212118 0.150000 0.149729 0.201406 0.150000 0.163856 0.189754 0.150000 0.177218 0.177218 0.150000 0.189754 0.163856 0.150000 0.201406 0.149729 0.150000 0.212118 0.134905 0.150000 0.221841 0.119451 0.150000 0.230531 0.103441 0.150000 0.238145 0.086948 0.150000 0.244649 0.070050 0.150000 0.250012 0.052825 0.150000 0.254209 0.035354 0.150000 0.257222 0.017718 0.150000 0.259035 0.000000 0.170000 0.248093 -0.017500 0.170000 0.247475 -0.034913 0.170000 0.245624 -0.052152 0.170000 0.242550 -0.069132 0.170000 0.238267 -0.085767 0.170000 0.232797 -0.101974 0.170000 0.226167 -0.117674 0.170000 0.218410 -0.132787 0.170000 0.209566 -0.147239 0.170000 0.199677 -0.160957 0.170000 0.188794 -0.173873 0.170000 0.176969 -0.185923 0.170000 0.164264 -0.197047 0.170000 0.150740 -0.207190 0.170000 0.136465 -0.216299 0.170000 0.121510 -0.224332 0.170000 0.105950 -0.231247 0.170000 0.089862 -0.237009 0.170000 0.073326 -0.241591 0.170000 0.056425 -0.244970 0.170000 0.039243 -0.247128 0.170000 0.021865 -0.248054 0.170000 0.004378 -0.247745 0.170000 -0.013130 -0.246202 0.170000 -0.030573 -0.243432 0.170000 -0.047864 -0.239450 0.170000 -0.064916 -0.234274 0.170000 -0.081645 -0.227931 0.170000 -0.097967 -0.220453 0.170000 -0.113801 -0.211876 0.170000 -0.129068 -0.202244 0.170000 -0.143692 -0.191605 0.170000 -0.157600 -0.180011 0.170000 -0.170723 -0.167520 0.170000 -0.182995 -0.154194 0.170000 -0.194356 -0.140100 0.170000 -0.204749 -0.125308 0.170000 -0.214121 -0.109892 0.170000 -0.222427 -0.093929 0.170000 -0.229625 -0.077497 0.170000 -0.235678 -0.060680 0.170000 -0.240558 -0.043560 0.170000 -0.244239 -0.026223 0.170000 -0.246703 -0.008756 0.170000 -0.247938 0.008756 0.170000 -0.247938 0.026223 0.170000 -0.246703 0.043560 0.170000 -0.244239 0.060680 0.170000 -0.240558 0.077497 0.170000 -0.235678 0.093929 0.170000 -0.229625 0.109892 0.170000 -0.222427 0.125308 0.170000 -0.214121 0.140100 0.170000 -0.204749 0.154194 0.170000 -0.194356 0.167520 0.170000 -0.182995 0.180011 0.170000 -0.170723 0.191605 0.170000 -0.157600 0.202244 0.170000 -0.143692 0.211876 0.170000 -0.129068 0.220453 0.170000 -0.113801 0.227931 0.170000 -0.097967 0.234274 0.170000 -0.081645 0.239450 0.170000 -0.064916 0.243432 0.170000 -0.047864 0.246202 0.170000 -0.030573 0.247745 0.170000 -0.013130 0.248054 0.170000 0.004378 0.247128 0.170000 0.021865 0.244970 0.170000 0.039243 0.241591 0.170000 0.056425 0.237009 0.170000 0.073326 0.231247 0.170000 0.089862 0.224332 0.170000 0.105950 0.216299 0.170000 0.121510 0.207190 0.170000 0.136465 0.197047 0.170000 0.150740 0.185923 0.170000 0.164264 0.173873 0.170000 0.176969 0.160957 0.170000 0.188794 0.147239 0.170000 0.199677 0.132787 0.170000 0.209566 0.117674 0.170000 0.218410 0.101974 0.170000 0.226167 0.085767 0.170000 0.232797 0.069132 0.170000 0.238267 0.052152 0.170000 0.242550 0.034913 0.170000 0.245624 0.017500 0.170000 0.247475</float_array>
          <technique_common>
            <accessor source="#base_link-mesh-positions-array" count="391" stride="3">
              <param name="X" type="float"/>
              <param name="Y" type="float"/>
              <param name="Z" type="float"/>
            </accessor>
          </technique_common>
        </source>
        <source id="base_link-mesh-normals">
          <float_array id="base_link-mesh-normals-array" count="2346">-0.059804 0.000000 0.998210 -0.059804 0.000000 0.998210 -0.000000 0.000000 1.000000 -0.000000 0.000000 1.000000 0.059804 0.000000 0.998210 0.059804 0.000000 0.998210 0.119394 0.000000 0.992847 0.119394 0.000000 0.992847 0.178557 0.000000 0.983930 0.178557 0.000000 0.983930 0.237080 0.000000 0.971490 0.237080 0.000000 0.971490 0.294755 0.000000 0.955573 0.294755 0.000000 0.955573 0.351375 0.000000 0.936235 0.351375 0.000000 0.936235 0.406737 0.000000 0.913545 0.406737 0.000000 0.913545 0.460642 0.000000 0.887586 0.460642 0.000000 0.887586 0.512899 0.000000 0.858449 0.512899 0.000000 0.858449 0.563320 0.000000 0.826239 0.563320 0.000000 0.826239 0.611724 0.000000 0.791071 0.611724 0.000000 0.791071 0.657939 0.000000 0.753071 0.657939 0.000000 0.753071 0.701798 0.000000 0.712376 0.701798 0.000000 0.712376 0.743145 0.000000 0.669131 0.743145 0.000000 0.669131 0.781831 0.000000 0.623490 0.781831 0.000000 0.623490 0.817719 0.000000 0.575617 0.817719 0.000000 0.575617 0.850680 0.000000 0.525684 0.850680 0.000000 0.525684 0.880596 0.000000 0.473869 0.880596 0.000000 0.473869 0.907359 0.000000 0.420357 0.907359 0.000000 0.420357 0.930874 0.000000 0.365341 0.930874 0.000000 0.365341 0.951057 0.000000 0.309017 0.951057 0.000000 0.309017 0.967835 0.000000 0.251587 0.967835 0.000000 0.251587 0.981148 0.000000 0.193256 0.981148 0.000000 0.193256 0.990950 0.000000 0.134233 0.990950 0.000000 0.134233 0.997204 0.000000 0.074730 0.997204 0.000000 0.074730 0.999888 0.000000 0.014959 0.999888 0.000000 0.014959 0.998993 0.000000 -0.044865 0.998993 0.000000 -0.044865 0.994522 0.000000 -0.104528 0.994522 0.000000 -0.104528 0.986491 0.000000 -0.163818 0.986491 0.000000 -0.163818 0.974928 0.000000 -0.222521 0.974928 0.000000 -0.222521 0.959875 0.000000 -0.280427 0.959875 0.000000 -0.280427 0.941386 0.000000 -0.337330 0.941386 0.000000 -0.337330 0.919528 0.000000 -0.393025 0.919528 0.000000 -0.393025 0.894377 0.000000 -0.447313 0.894377 0.000000 -0.447313 0.866025 0.000000 -0.500000 0.866025 0.000000 -0.500000 0.834573 0.000000 -0.550897 0.834573 0.000000 -0.550897 0.800134 0.000000 -0.599822 0.800134 0.000000 -0.599822 0.762830 0.000000 -0.646600 0.762830 0.000000 -0.646600 0.722795 0.000000 -0.691063 0.722795 0.000000 -0.691063 0.680173 0.000000 -0.733052 0.680173 0.000000 -0.733052 0.635116 0.000000 -0.772417 0.635116 0.000000 -0.772417 0.587785 0.000000 -0.809017 0.587785 0.000000 -0.809017 0.538351 0.000000 -0.842721 0.538351 0.000000 -0.842721 0.486989 0.000000 -0.873408 0.486989 0.000000 -0.873408 0.433884 0.000000 -0.900969 0.433884 0.000000 -0.900969 0.379225 0.000000 -0.925304 0.379225 0.000000 -0.925304 0.323210 0.000000 -0.946327 0.323210 0.000000 -0.946327 0.266037 0.000000 -0.963963 0.266037 0.000000 -0.963963 0.207912 0.000000 -0.978148 0.207912 0.000000 -0.978148 0.149042 0.000000 -0.988831 0.149042 0.000000 -0.988831 0.089639 0.000000 -0.995974 0.089639 0.000000 -0.995974 0.029915 0.000000 -0.999552 0.029915 0.000000 -0.999552 -0.029915 0.000000 -0.999552 -0.029915 0.000000 -0.999552 -0.089639 0.000000 -0.995974 -0.089639 0.000000 -0.995974 -0.149042 0.000000 -0.988831 -0.149042 0.000000 -0.988831 -0.207912 0.000000 -0.978148 -0.207912 0.000000 -0.978148 -0.266037 0.000000 -0.963963 -0.266037 0.000000 -0.963963 -0.323210 0.000000 -0.946327 -0.323210 0.000000 -0.946327 -0.379225 0.000000 -0.925304 -0.379225 0.000000 -0.925304 -0.433884 0.000000 -0.900969 -0.433884 0.000000 -0.900969 -0.486989 0.000000 -0.873408 -0.486989 0.000000 -0.873408 -0.538351 0.000000 -0.842721 -0.538351 0.000000 -0.842721 -0.587785 0.000000 -0.809017 -0.587785 0.000000 -0.809017 -0.635116 0.000000 -0.772417 -0.635116 0.000000 -0.772417 -0.680173 0.000000 -0.733052 -0.680173 0.000000 -0.733052 -0.722795 0.000000 -0.691063 -0.722795 0.000000 -0.691063 -0.762830 0.000000 -0.646600 -0.762830 0.000000 -0.646600 -0.800134 0.000000 -0.599822 -0.800134 0.000000 -0.599822 -0.834573 0.000000 -0.550897 -0.834573 0.000000 -0.550897 -0.866025 0.000000 -0.500000 -0.866025 0.000000 -0.500000 -0.894377 0.000000 -0.447313 -0.894377 0.000000 -0.447313 -0.919528 0.000000 -0.393025 -0.919528 0.000000 -0.393025 -0.941386 0.000000 -0.337330 -0.941386 0.000000 -0.337330 -0.959875 0.000000 -0.280427 -0.959875 0.000000 -0.280427 -0.974928 0.000000 -0.222521 -0.974928 0.000000 -0.222521 -0.986491 0.000000 -0.163818 -0.986491 0.000000 -0.163818 -0.994522 0.000000 -0.104528 -0.994522 0.000000 -0.104528 -0.998993 0.000000 -0.044865 -0.998993 0.000000 -0.044865 -0.999888 0.000000 0.014959 -0.999888 0.000000 0.014959 -0.997204 0.000000 0.074730 -0.997204 0.000000 0.074730 -0.990950 0.000000 0.134233 -0.990950 0.000000 0.134233 -0.981148 0.000000 0.193256 -0.981148 0.000000 0.193256 -0.967835 0.000000 0.251587 -0.967835 0.000000 0.251587 -0.951057 0.000000 0.309017 -0.951057 0.000000 0.309017 -0.930874 0.000000 0.365341 -0.930874 0.000000 0.365341 -0.907359 0.000000 0.420357 -0.907359 0.000000 0.420357 -0.880596 0.000000 0.473869 -0.880596 0.000000 0.473869 -0.850680 0.000000 0.525684 -0.850680 0.000000 0.525684 -0.817719 0.000000 0.575617 -0.817719 0.000000 0.575617 -0.781831 0.000000 0.623490 -0.781831 0.000000 0.623490 -0.743145 0.000000 0.669131 -0.743145 0.000000 0.669131 -0.701798 0.000000 0.712376 -0.701798 0.000000 0.712376 -0.657939 0.000000 0.753071 -0.657939 0.000000 0.753071 -0.611724 0.000000 0.791071 -0.611724 0.000000 0.791071 -0.563320 0.000000 0.826239 -0.563320 0.000000 0.826239 -0.512899 0.000000 0.858449 -0.512899 0.000000 0.858449 -0.460642 0.000000 0.887586 -0.460642 0.000000 0.887586 -0.406737 0.000000 0.913545 -0.406737 0.000000 0.913545 -0.351375 0.000000 0.936235 -0.351375 0.000000 0.936235 -0.294755 0.000000 0.955573 -0.294755 0.000000 0.955573 -0.237080 0.000000 0.971490 -0.237080 0.000000 0.971490 -0.178557 0.000000 0.983930 -0.178557 0.000000 0.983930 -0.119394 0.000000 0.992847 -0.119394 0.000000 0.992847 0.000000 1.000000 0.000000 0.000000 1.000000 0.000000 0.000000 1.000000 0.000000 0.000000 1.000000 0.000000 0.000000 1.000000 0.000000 0.000000 1.000000 0.000000 0.000000 1.000000 0.000000 0.000000 1.000000 0.000000 0.000000 1.000000 0.000000 0.000000 1.000000 0.000000 0.000000 1.000000 0.000000 0.000000 1.000000 0.000000 0.000000 1.000000 0.000000 0.000000 1.000000 0.000000 0.000000 1.000000 0.000000 0.000000 1.000000 0.000000 0.000000 1.000000 0.000000 0.000000 1.000000 0.000000 0.000000 1.000000 0.000000 0.000000 1.000000 0.000000 0.000000 1.000000 0.000000 0.000000 1.000000 0.000000 0.000000 1.000000 0.000000 0.000000 1.000000 0.000000 0.000000 1.000000 0.000000 0.000000 1.000000 0.000000 0.000000 1.000000 0.000000 0.000000 1.000000 0.000000 0.000000 1.000000 0.000000 0.000000 1.000000 0.000000 0.000000 1.000000 0.000000 0.000000 1.000000 0.000000 0.000000 1.000000 0.000000 0.000000 1.000000 0.000000 0.000000 1.000000 0.000000 0.000000 1.000000 0.000000 0.000000 1.000000 0.000000 0.000000 1.000000 0.000000 0.000000 1.000000 0.000000 0.000000 1.000000 0.000000 0.000000 1.000000 0.000000 0.000000 1.000000 0.000000 0.000000 1.000000 0.000000 0.000000 1.000000 0.000000 0.000000 1.000000 0.000000 0.000000 1.000000 0.000000 0.000000 1.000000 0.000000 0.000000 1.000000 0.000000 0.000000 1.000000 0.000000 0.000000 1.000000 0.000000 0.000000 1.000000 0.000000 0.000000 1.000000 0.000000 0.000000 1.000000 0.000000 0.000000 1.000000 0.000000 0.000000 1.000000 0.000000 0.000000 1.000000 0.000000 0.000000 1.000000 0.000000 0.000000 1.000000 0.000000 0.000000 1.000000 0.000000 0.000000 1.000000 0.000000 0.000000 1.000000 0.000000 0.000000 1.000000 0.000000 0.000000 1.000000 0.000000 0.000000 1.000000 0.000000 0.000000 1.000000 0.000000 0.000000 1.000000 0.000000 0.000000 1.000000 0.000000 0.000000 1.000000 0.000000 0.000000 1.000000 0.000000 0.000000 1.000000 0.000000 0.000000 1.000000 0.000000 0.000000 1.000000 0.000000 0.000000 1.000000 0.000000 0.000000 1.000000 0.000000 0.000000 1.000000 0.000000 0.000000 1.000000 0.000000 0.000000 1.000000 0.000000 0.000000 1.000000 0.000000 0.000000 1.000000 0.000000 0.000000 1.000000 0.000000 0.000000 1.000000 0.000000 0.000000 1.000000 0.000000 0.000000 1.000000 0.000000 0.000000 1.000000 0.000000 0.000000 1.000000 0.000000 0.000000 1.000000 0.000000 0.000000 1.000000 0.000000 0.000000 1.000000 0.000000 0.000000 1.000000 0.000000 0.000000 1.000000 0.000000 0.000000 1.000000 0.000000 0.000000 1.000000 0.000000 0.000000 1.000000 0.000000 0.000000 1.000000 0.000000 0.000000 1.000000 0.000000 0.000000 1.000000 0.000000 0.000000 1.000000 0.000000 0.000000 1.000000 0.000000 0.000000 1.000000 0.000000 0.000000 1.000000 0.000000 0.000000 1.000000 0.000000 0.000000 1.000000 0.000000 0.000000 1.000000 0.000000 0.000000 1.000000 0.000000 0.000000 1.000000 0.000000 0.000000 1.000000 0.000000 0.000000 1.000000 0.000000 0.000000 1.000000 0.000000 0.000000 1.000000 0.000000 0.000000 1.000000 0.000000 0.000000 1.000000 0.000000 0.000000 1.000000 0.000000 0.000000 1.000000 0.000000 0.000000 1.000000 0.000000 0.000000 1.000000 0.000000 0.000000 1.000000 0.000000 0.000000 1.000000 0.000000 0.000000 1.000000 0.000000 0.000000 1.000000 0.000000 0.000000 1.000000 0.000000 0.000000 1.000000 0.000000 0.000000 1.000000 0.000000 0.000000 1.000000 0.000000 0.000000 1.000000 0.000000 0.000000 1.000000 0.000000 0.000000 1.000000 0.000000 0.000000 1.000000 0.000000 0.000000 1.000000 0.000000 0.000000 1.000000 0.000000 0.000000 1.000000 0.000000 0.000000 1.000000 0.000000 0.000000 1.000000 0.000000 0.000000 1.000000 0.000000 0.000000 1.000000 0.000000 0.000000 1.000000 0.000000 0.000000 1.000000 0.000000 0.000000 1.000000 0.000000 0.000000 1.000000 0.000000 0.000000 1.000000 0.000000 0.000000 1.000000 0.000000 0.000000 1.000000 0.000000 0.000000 1.000000 0.000000 0.000000 1.000000 0.000000 0.000000 1.000000 0.000000 0.000000 1.000000 0.000000 0.000000 1.000000 0.000000 0.000000 1.000000 0.000000 0.000000 1.000000 0.000000 0.000000 1.000000 0.000000 0.000000 1.000000 0.000000 0.000000 1.000000 0.000000 0.000000 1.000000 0.000000 0.000000 1.000000 0.000000 0.000000 1.000000 0.000000 0.000000 1.000000 0.000000 0.000000 1.000000 0.000000 0.000000 1.000000 0.000000 0.000000 1.000000 0.000000 0.000000 1.000000 0.000000 0.000000 1.000000 0.000000 0.000000 1.000000 0.000000 0.000000 1.000000 0.000000 0.000000 1.000000 0.000000 0.000000 1.000000 0.000000 0.000000 1.000000 0.000000 0.000000 1.000000 0.000000 0.000000 1.000000 0.000000 0.000000 1.000000 0.000000 0.000000 1.000000 0.000000 0.000000 1.000000 0.000000 0.000000 1.000000 0.000000 0.000000 1.000000 0.000000 0.000000 1.000000 0.000000 0.000000 1.000000 0.000000 0.000000 1.000000 0.000000 0.000000 1.000000 0.000000 0.000000 1.000000 0.000000 0.000000 1.000000 0.000000 0.000000 1.000000 0.000000 0.000000 1.000000 0.000000 0.000000 1.000000 0.000000 0.000000 1.000000 0.000000 0.000000 1.000000 0.000000 0.000000 1.000000 0.000000 0.000000 1.000000 0.000000 0.000000 1.000000 0.000000 0.000000 1.000000 0.000000 0.000000 1.000000 0.000000 0.000000 1.000000 0.000000 0.000000 1.000000 0.000000 0.000000 1.000000 0.000000 0.000000 1.000000 0.000000 0.000000 1.000000 0.000000 0.000000 1.000000 0.000000 0.000000 1.000000 0.000000 0.000000 1.000000 0.000000 0.000000 1.000000 0.000000 -0.000000 -1.000000 -0.000000 -0.000000 -1.000000 -0.000000 -0.000000 -1.000000 -0.000000 -0.000000 -1.000000 -0.000000 -0.000000 -1.000000 -0.000000 -0.000000 -1.000000 -0.000000 -0.000000 -1.000000 -0.000000 -0.000000 -1.000000 -0.000000 -0.000000 -1.000000 -0.000000 -0.000000 -1.000000 -0.000000 -0.000000 -1.000000 -0.000000 -0.000000 -1.000000 -0.000000 -0.000000 -1.000000 -0.000000 -0.000000 -1.000000 -0.000000 -0.000000 -1.000000 -0.000000 -0.000000 -1.000000 -0.000000 -0.000000 -1.000000 -0.000000 -0.000000 -1.000000 -0.000000 -0.000000 -1.000000 -0.000000 -0.000000 -1.000000 -0.000000 -0.000000 -1.000000 -0.000000 -0.000000 -1.000000 -0.000000 -0.000000 -1.000000 -0.000000 -0.000000 -1.000000 -0.000000 -0.000000 -1.000000 -0.000000 -0.000000 -1.000000 -0.000000 -0.000000 -1.000000 -0.000000 -0.000000 -1.000000 -0.000000 -0.000000 -1.000000 -0.000000 -0.000000 -1.000000 -0.000000 -0.000000 -1.000000 -0.000000 -0.000000 -1.000000 -0.000000 -0.000000 -1.000000 -0.000000 -0.000000 -1.000000 -0.000000 -0.000000 -1.000000 -0.000000 -0.000000 -1.000000 -0.000000 -0.000000 -1.000000 -0.000000 -0.000000 -1.000000 -0.000000 -0.000000 -1.000000 -0.000000 -0.000000 -1.000000 -0.000000 -0.000000 -1.000000 -0.000000 -0.000000 -1.000000 -0.000000 -0.000000 -1.000000 -0.000000 -0.000000 -1.000000 -0.000000 -0.000000 -1.000000 -0.000000 -0.000000 -1.000000 -0.000000 -0.000000 -1.000000 -0.000000 -0.000000 -1.000000 -0.000000 -0.000000 -1.000000 -0.000000 -0.000000 -1.000000 -0.000000 -0.000000 -1.000000 -0.000000 -0.000000 -1.000000 -0.000000 -0.000000 -1.000000 -0.000000 -0.000000 -1.000000 -0.000000 -0.000000 -1.000000 -0.000000 -0.000000 -1.000000 -0.000000 -0.000000 -1.000000 -0.000000 -0.000000 -1.000000 -0.000000 -0.000000 -1.000000 -0.000000 -0.000000 -1.000000 -0.000000 -0.000000 -1.000000 -0.000000 -0.000000 -1.000000 -0.000000 -0.000000 -1.000000 -0.000000 -0.000000 -1.000000 -0.000000 -0.000000 -1.000000 -0.000000 -0.000000 -1.000000 -0.000000 -0.000000 -1.000000 -0.000000 -0.000000 -1.000000 -0.000000 -0.000000 -1.000000 -0.000000 -0.000000 -1.000000 -0.000000 -0.000000 -1.000000 -0.000000 -0.000000 -1.000000 -0.000000 -0.000000 -1.000000 -0.000000 -0.000000 -1.000000 -0.000000 -0.000000 -1.000000 -0.000000 -0.000000 -1.000000 -0.000000 -0.000000 -1.000000 -0.000000 -0.000000 -1.000000 -0.000000 -0.000000 -1.000000 -0.000000 -0.000000 -1.000000 -0.000000 -0.000000 -1.000000 -0.000000 -0.000000 -1.000000 -0.000000 -0.000000 -1.000000 -0.000000 -0.000000 -1.000000 -0.000000 -0.000000 -1.000000 -0.000000 -0.000000 -1.000000 -0.000000 -0.000000 -1.000000 -0.000000 -0.000000 -1.000000 -0.000000 -0.000000 -1.000000 -0.000000 -0.000000 -1.000000 -0.000000 -0.000000 -1.000000 -0.000000 -0.000000 -1.000000 -0.000000 -0.000000 -1.000000 -0.000000 -0.000000 -1.000000 -0.000000 -0.000000 -1.000000 -0.000000 -0.000000 -1.000000 -0.000000 -0.000000 -1.000000 -0.000000 -0.000000 -1.000000 -0.000000 -0.000000 -1.000000 -0.000000 -0.000000 -1.000000 -0.000000 -0.000000 -1.000000 -0.000000 -0.000000 -1.000000 -0.000000 -0.000000 -1.000000 -0.000000 -0.000000 -1.000000 -0.000000 -0.000000 -1.000000 -0.000000 -0.061089 0.500000 0.863868 -0.059100 0.500000 0.864006 0.000000 0.500000 0.866025 0.000000 0.500000 0.866025 0.059100 0.500000 0.864006 -0.117924 0.500000 0.857959 -0.121873 0.500000 0.857407 -0.176198 0.500000 0.847912 -0.182050 0.500000 0.846675 -0.233651 0.500000 0.833911 -0.241320 0.500000 0.831724 -0.290014 0.500000 0.816022 -0.299388 0.500000 0.812630 -0.345025 0.500000 0.794328 -0.355964 0.500000 0.789487 -0.398428 0.500000 0.768931 -0.410767 0.500000 0.762411 -0.449973 0.500000 0.739949 -0.463523 0.500000 0.731537 -0.499420 0.500000 0.707517 -0.513971 0.500000 0.697018 -0.546538 0.500000 0.671786 -0.561857 0.500000 0.659027 -0.591108 0.500000 0.632923 -0.606945 0.500000 0.617753 -0.632923 0.500000 0.591108 -0.649008 0.500000 0.573400 -0.671786 0.500000 0.546538 -0.687839 0.500000 0.526192 -0.707517 0.500000 0.499420 -0.723242 0.500000 0.476362 -0.739949 0.500000 0.449973 -0.755043 0.500000 0.424158 -0.768931 0.500000 0.398428 -0.783082 0.500000 0.369842 -0.794328 0.500000 0.345025 -0.807219 0.500000 0.313683 -0.816022 0.500000 0.290014 -0.827335 0.500000 0.255961 -0.833911 0.500000 0.233651 -0.843330 0.500000 0.196964 -0.847912 0.500000 0.176198 -0.855123 0.500000 0.136986 -0.857959 0.500000 0.117924 -0.862655 0.500000 0.076325 -0.864006 0.500000 0.059100 -0.865891 0.500000 0.015284 -0.866025 0.500000 -0.000000 -0.864812 0.500000 -0.045833 -0.864006 0.500000 -0.059100 -0.859424 0.500000 -0.106722 -0.857959 0.500000 -0.117924 -0.849756 0.500000 -0.167079 -0.847912 0.500000 -0.176198 -0.835853 0.500000 -0.226604 -0.833911 0.500000 -0.233651 -0.817787 0.500000 -0.284999 -0.816022 0.500000 -0.290014 -0.795646 0.500000 -0.341975 -0.794328 0.500000 -0.345025 -0.769542 0.500000 -0.397247 -0.768931 0.500000 -0.398428 -0.739603 0.500000 -0.450541 -0.739949 0.500000 -0.449973 -0.707517 0.500000 -0.499420 -0.705980 0.500000 -0.501589 -0.671786 0.500000 -0.546538 -0.668840 0.500000 -0.550139 -0.632923 0.500000 -0.591108 -0.628368 0.500000 -0.595948 -0.591108 0.500000 -0.632923 -0.584765 0.500000 -0.638788 -0.546538 0.500000 -0.671786 -0.538249 0.500000 -0.678445 -0.499420 0.500000 -0.707517 -0.489052 0.500000 -0.714723 -0.449973 0.500000 -0.739949 -0.437418 0.500000 -0.747440 -0.398428 0.500000 -0.768931 -0.383604 0.500000 -0.776433 -0.345025 0.500000 -0.794328 -0.327880 0.500000 -0.801558 -0.290014 0.500000 -0.816022 -0.270522 0.500000 -0.822689 -0.233651 0.500000 -0.833911 -0.211817 0.500000 -0.839722 -0.176198 0.500000 -0.847912 -0.152056 0.500000 -0.852572 -0.117924 0.500000 -0.857959 -0.091538 0.500000 -0.861174 -0.059100 0.500000 -0.864006 -0.030563 0.500000 -0.865486 -0.000000 0.500000 -0.866025 0.030563 0.500000 -0.865486 0.059100 0.500000 -0.864006 0.091538 0.500000 -0.861174 0.117924 0.500000 -0.857959 0.152056 0.500000 -0.852572 0.176198 0.500000 -0.847912 0.211817 0.500000 -0.839722 0.233651 0.500000 -0.833911 0.270522 0.500000 -0.822689 0.290014 0.500000 -0.816022 0.327880 0.500000 -0.801558 0.345025 0.500000 -0.794328 0.383604 0.500000 -0.776433 0.398428 0.500000 -0.768931 0.437418 0.500000 -0.747440 0.449973 0.500000 -0.739949 0.489052 0.500000 -0.714723 0.499420 0.500000 -0.707517 0.538249 0.500000 -0.678445 0.546538 0.500000 -0.671786 0.584765 0.500000 -0.638788 0.591108 0.500000 -0.632923 0.628368 0.500000 -0.595948 0.632923 0.500000 -0.591108 0.668840 0.500000 -0.550139 0.671786 0.500000 -0.546538 0.705980 0.500000 -0.501589 0.707517 0.500000 -0.499420 0.739603 0.500000 -0.450541 0.739949 0.500000 -0.449973 0.768931 0.500000 -0.398428 0.769542 0.500000 -0.397247 0.794328 0.500000 -0.345025 0.795646 0.500000 -0.341975 0.816022 0.500000 -0.290014 0.817787 0.500000 -0.284999 0.833911 0.500000 -0.233651 0.835853 0.500000 -0.226604 0.847912 0.500000 -0.176198 0.849756 0.500000 -0.167079 0.857959 0.500000 -0.117924 0.859424 0.500000 -0.106722 0.864006 0.500000 -0.059100 0.864812 0.500000 -0.045833 0.866025 0.500000 0.000000 0.865891 0.500000 0.015284 0.864006 0.500000 0.059100 0.862655 0.500000 0.076325 0.857959 0.500000 0.117924 0.855123 0.500000 0.136986 0.847912 0.500000 0.176198 0.843330 0.500000 0.196964 0.833911 0.500000 0.233651 0.827335 0.500000 0.255961 0.816022 0.500000 0.290014 0.807219 0.500000 0.313683 0.794328 0.500000 0.345025 0.783082 0.500000 0.369842 0.768931 0.500000 0.398428 0.755043 0.500000 0.424158 0.739949 0.500000 0.449973 0.723242 0.500000 0.476362 0.707517 0.500000 0.499420 0.687839 0.500000 0.526192 0.671786 0.500000 0.546538 0.649008 0.500000 0.573400 0.632923 0.500000 0.591108 0.606945 0.500000 0.617753 0.591108 0.500000 0.632923 0.561857 0.500000 0.659027 0.546538 0.500000 0.671786 0.513971 0.500000 0.697018 0.499420 0.500000 0.707517 0.463523 0.500000 0.731537 0.449973 0.500000 0.739949 0.410767 0.500000 0.762411 0.398428 0.500000 0.768931 0.355964 0.500000 0.789487 0.345025 0.500000 0.794328 0.299388 0.500000 0.812630 0.290014 0.500000 0.816022 0.241320 0.500000 0.831724 0.233651 0.500000 0.833911 0.182050 0.500000 0.846675 0.176198 0.500000 0.847912 0.121873 0.500000 0.857407 0.117924 0.500000 0.857959 0.061089 0.500000 0.863868 0.000000 1.000000 0.000000 0.000000 1.000000 0.000000 0.000000 1.000000 0.000000 0.000000 1.000000 0.000000 0.000000 1.000000 0.000000 0.000000 1.000000 0.000000 0.000000 1.000000 0.000000 0.000000 1.000000 0.000000 0.000000 1.000000 0.000000 0.000000 1.000000 0.000000 0.000000 1.000000 0.000000 0.000000 1.000000 0.000000 0.000000 1.000000 0.000000 0.000000 1.000000 0.000000 0.000000 1.000000 0.000000 0.000000 1.000000 0.000000 0.000000 1.000000 0.000000 0.000000 1.000000 0.000000 0.000000 1.000000 0.000000 0.000000 1.000000 0.000000 0.000000 1.000000 0.000000 0.000000 1.000000 0.000000 0.000000 1.000000 0.000000 0.000000 1.000000 0.000000 0.000000 1.000000 0.000000 0.000000 1.000000 0.000000 0.000000 1.000000 0.000000 0.000000 1.000000 0.000000 0.000000 1.000000 0.000000 0.000000 1.000000 0.000000 0.000000 1.000000 0.000000 0.000000 1.000000 0.000000 0.000000 1.000000 0.000000 0.000000 1.000000 0.000000 0.000000 1.000000 0.000000 0.000000 1.000000 0.000000 0.000000 1.000000 0.000000 0.000000 1.000000 0.000000 0.000000 1.000000 0.000000 0.000000 1.000000 0.000000 0.000000 1.000000 0.000000 0.000000 1.000000 0.000000 0.000000 1.000000 0.000000 0.000000 1.000000 0.000000 0.000000 1.000000 0.000000 0.000000 1.000000 0.000000 0.000000 1.000000 0.000000 0.000000 1.000000 0.000000 0.000000 1.000000 0.000000 0.000000 1.000000 0.000000 0.000000 1.000000 0.000000 0.000000 1.000000 0.000000 0.000000 1.000000 0.000000 0.000000 1.000000 0.000000 0.000000 1.000000 0.000000 0.000000 1.000000 0.000000 0.000000 1.000000 0.000000 0.000000 1.000000 0.000000 0.000000 1.000000 0.000000 0.000000 1.000000 0.000000 0.000000 1.000000 0.000000 0.000000 1.000000 0.000000 0.000000 1.000000 0.000000 0.000000 1.000000 0.000000 0.000000 1.000000 0.000000 0.000000 1.000000 0.000000 0.000000 1.000000 0.000000 0.000000 1.000000 0.000000 0.000000 1.000000 0.000000 0.000000 1.000000 0.000000 0.000000 1.000000 0.000000 0.000000 1.000000 0.000000 0.000000 1.000000 0.000000 0.000000 1.000000 0.000000 0.000000 1.000000 0.000000 0.000000 1.000000 0.000000 0.000000 1.000000 0.000000 0.000000 1.000000 0.000000 0.000000 1.000000 0.000000 0.000000 1.000000 0.000000 0.000000 1.000000 0.000000 0.000000 1.000000 0.000000 0.000000 1.000000 0.000000 0.000000 1.000000 0.000000 0.000000 1.000000 0.000000 0.000000 1.000000 0.000000 0.000000 1.000000 0.000000 0.000000 1.000000 0.000000 0.000000 1.000000 0.000000</float_array>
          <technique_common>
            <accessor source="#base_link-mesh-normals-array" count="782" stride="3">
              <param name="X" type="float"/>
              <param name="Y" type="float"/>
              <param name="Z" type="float"/>
            </accessor>
          </technique_common>
        </source>
        <vertices id="base_link-mesh-vertices">
          <input semantic="POSITION" source="#base_link-mesh-positions"/>
        </vertices>
        <triangles material="Opaque_128_0_0_" count="588">
          <input semantic="VERTEX" source="#base_link-mesh-vertices" offset="0"/>
          <input semantic="NORMAL" source="#base_link-mesh-normals" offset="1"/>
          <p>1 0 209 1 0 2 0 2 209 1 105 3 0 2 105 3 104 4 104 4 105 3 106 5 104 4 106 5 103 6 103 6 106 5 107 7 103 6 107 7 102 8 102 8 107 7 108 9 102 8 108 9 101 10 101 10 108 9 109 11 101 10 109 11 100 12 100 12 109 11 110 13 100 12 110 13 99 14 99 14 110 13 111 15 99 14 111 15 98 16 98 16 111 15 112 17 98 16 112 17 97 18 97 18 112 17 113 19 97 18 113 19 96 20 96 20 113 19 114 21 96 20 114 21 95 22 95 22 114 21 115 23 95 22 115 23 94 24 94 24 115 23 116 25 94 24 116 25 93 26 93 26 116 25 117 27 93 26 117 27 92 28 92 28 117 27 118 29 92 28 118 29 91 30 91 30 118 29 119 31 91 30 119 31 90 32 90 32 119 31 120 33 90 32 120 33 89 34 89 34 120 33 121 35 89 34 121 35 88 36 88 36 121 35 122 37 88 36 122 37 87 38 87 38 122 37 123 39 87 38 123 39 86 40 86 40 123 39 124 41 86 40 124 41 85 42 85 42 124 41 125 43 85 42 125 43 84 44 84 44 125 43 126 45 84 44 126 45 83 46 83 46 126 45 127 47 83 46 127 47 82 48 82 48 127 47 128 49 82 48 128 49 81 50 81 50 128 49 129 51 81 50 129 51 80 52 80 52 129 51 130 53 80 52 130 53 79 54 79 54 130 53 131 55 79 54 131 55 78 56 78 56 131 55 132 57 78 56 132 57 77 58 77 58 132 57 133 59 77 58 133 59 76 60 76 60 133 59 134 61 76 60 134 61 75 62 75 62 134 61 135 63 75 62 135 63 74 64 74 64 135 63 136 65 74 64 136 65 73 66 73 66 136 65 137 67 73 66 137 67 72 68 72 68 137 67 138 69 72 68 138 69 71 70 71 70 138 69 139 71 71 70 139 71 70 72 70 72 139 71 140 73 70 72 140 73 69 74 69 74 140 73 141 75 69 74 141 75 68 76 68 76 141 75 142 77 68 76 142 77 67 78 67 78 142 77 143 79 67 78 143 79 66 80 66 80 143 79 144 81 66 80 144 81 65 82 65 82 144 81 145 83 65 82 145 83 64 84 64 84 145 83 146 85 64 84 146 85 63 86 63 86 146 85 147 87 63 86 147 87 62 88 62 88 147 87 148 89 62 88 148 89 61 90 61 90 148 89 149 91 61 90 149 91 60 92 60 92 149 91 150 93 60 92 150 93 59 94 59 94 150 93 151 95 59 94 151 95 58 96 58 96 151 95 152 97 58 96 152 97 57 98 57 98 152 97 153 99 57 98 153 99 56 100 56 100 153 99 154 101 56 100 154 101 55 102 55 102 154 101 155 103 55 102 155 103 54 104 54 104 155 103 156 105 54 104 156 105 53 106 53 106 156 105 157 107 53 106 157 107 52 108 52 108 157 107 158 109 52 108 158 109 51 110 51 110 158 109 159 111 51 110 159 111 50 112 50 112 159 111 160 113 50 112 160 113 49 114 49 114 160 113 161 115 49 114 161 115 48 116 48 116 161 115 162 117 48 116 162 117 47 118 47 118 162 117 163 119 47 118 163 119 46 120 46 120 163 119 164 121 46 120 164 121 45 122 45 122 164 121 165 123 45 122 165 123 44 124 44 124 165 123 166 125 44 124 166 125 43 126 43 126 166 125 167 127 43 126 167 127 42 128 42 128 167 127 168 129 42 128 168 129 41 130 41 130 168 129 169 131 41 130 169 131 40 132 40 132 169 131 170 133 40 132 170 133 39 134 39 134 170 133 171 135 39 134 171 135 38 136 38 136 171 135 172 137 38 136 172 137 37 138 37 138 172 137 173 139 37 138 173 139 36 140 36 140 173 139 174 141 36 140 174 141 35 142 35 142 174 141 175 143 35 142 175 143 34 144 34 144 175 143 176 145 34 144 176 145 33 146 33 146 176 145 177 147 33 146 177 147 32 148 32 148 177 147 178 149 32 148 178 149 31 150 31 150 178 149 179 151 31 150 179 151 30 152 30 152 179 151 180 153 30 152 180 153 29 154 29 154 180 153 181 155 29 154 181 155 28 156 28 156 181 155 182 157 28 156 182 157 27 158 27 158 182 157 183 159 27 158 183 159 26 160 26 160 183 159 184 161 26 160 184 161 25 162 25 162 184 161 185 163 25 162 185 163 24 164 24 164 185 163 186 165 24 164 186 165 23 166 23 166 186 165 187 167 23 166 187 167 22 168 22 168 187 167 188 169 22 168 188 169 21 170 21 170 188 169 189 171 21 170 189 171 20 172 20 172 189 171 190 173 20 172 190 173 19 174 19 174 190 173 191 175 19 174 191 175 18 176 18 176 191 175 192 177 18 176 192 177 17 178 17 178 192 177 193 179 17 178 193 179 16 180 16 180 193 179 194 181 16 180 194 181 15 182 15 182 194 181 195 183 15 182 195 183 14 184 14 184 195 183 196 185 14 184 196 185 13 186 13 186 196 185 197 187 13 186 197 187 12 188 12 188 197 187 198 189 12 188 198 189 11 190 11 190 198 189 199 191 11 190 199 191 10 192 10 192 199 191 200 193 10 192 200 193 9 194 9 194 200 193 201 195 9 194 201 195 8 196 8 196 201 195 202 197 8 196 202 197 7 198 7 198 202 197 203 199 7 198 203 199 6 200 6 200 203 199 204 201 6 200 204 201 5 202 5 202 204 201 205 203 5 202 205 203 4 204 4 204 205 203 206 205 4 204 206 205 3 206 3 206 206 205 207 207 3 206 207 207 2 208 2 208 207 207 208 209 2 208 208 209 1 0 1 0 208 209 209 1 1 210 0 211 210 212 210 212 0 211 104 213 210 212 104 213 301 214 301 214 104 213 103 215 301 214 103 215 300 216 300 216 103 215 102 217 300 216 102 217 299 218 299 218 102 217 101 219 299 218 101 219 298 220 298 220 101 219 100 221 298 220 100 221 297 222 297 222 100 221 99 223 297 222 99 223 296 224 296 224 99 223 98 225 296 224 98 225 295 226 295 226 98 225 97 227 295 226 97 227 96 228 295 226 96 228 294 229 294 229 96 228 95 230 294 229 95 230 293 231 293 231 95 230 94 232 293 231 94 232 292 233 292 233 94 232 93 234 292 233 93 234 291 235 291 235 93 234 92 236 291 235 92 236 290 237 290 237 92 236 91 238 290 237 91 238 289 239 289 239 91 238 90 240 289 239 90 240 288 241 288 241 90 240 89 242 288 241 89 242 88 243 288 241 88 243 287 244 287 244 88 243 87 245 287 244 87 245 286 246 286 246 87 245 86 247 286 246 86 247 285 248 285 248 86 247 85 249 285 248 85 249 284 250 284 250 85 249 84 251 284 250 84 251 283 252 283 252 84 251 83 253 283 252 83 253 282 254 282 254 83 253 82 255 282 254 82 255 281 256 281 256 82 255 81 257 281 256 81 257 80 258 281 256 80 258 280 259 280 259 80 258 79 260 280 259 79 260 279 261 279 261 79 260 78 262 279 261 78 262 278 263 278 263 78 262 77 264 278 263 77 264 277 265 277 265 77 264 76 266 277 265 76 266 276 267 276 267 76 266 75 268 276 267 75 268 275 269 275 269 75 268 74 270 275 269 74 270 274 271 274 271 74 270 73 272 274 271 73 272 72 273 274 271 72 273 273 274 273 274 72 273 71 275 273 274 71 275 272 276 272 276 71 275 70 277 272 276 70 277 271 278 271 278 70 277 69 279 271 278 69 279 270 280 270 280 69 279 68 281 270 280 68 281 269 282 269 282 68 281 67 283 269 282 67 283 268 284 268 284 67 283 66 285 268 284 66 285 267 286 267 286 66 285 65 287 267 286 65 287 64 288 267 286 64 288 266 289 266 289 64 288 63 290 266 289 63 290 265 291 265 291 63 290 62 292 265 291 62 292 264 293 264 293 62 292 61 294 264 293 61 294 263 295 263 295 61 294 60 296 263 295 60 296 262 297 262 297 60 296 59 298 262 297 59 298 261 299 261 299 59 298 58 300 261 299 58 300 260 301 260 301 58 300 57 302 260 301 57 302 56 303 260 301 56 303 259 304 259 304 56 303 55 305 259 304 55 305 258 306 258 306 55 305 54 307 258 306 54 307 257 308 257 308 54 307 53 309 257 308 53 309 256 310 256 310 53 309 52 311 256 310 52 311 255 312 255 312 52 311 51 313 255 312 51 313 254 314 254 314 51 313 50 315 254 314 50 315 253 316 253 316 50 315 49 317 253 316 49 317 252 318 252 318 49 317 48 319 252 318 48 319 47 320 252 318 47 320 251 321 251 321 47 320 46 322 251 321 46 322 250 323 250 323 46 322 45 324 250 323 45 324 249 325 249 325 45 324 44 326 249 325 44 326 248 327 248 327 44 326 43 328 248 327 43 328 247 329 247 329 43 328 42 330 247 329 42 330 246 331 246 331 42 330 41 332 246 331 41 332 245 333 245 333 41 332 40 334 245 333 40 334 39 335 245 333 39 335 244 336 244 336 39 335 38 337 244 336 38 337 243 338 243 338 38 337 37 339 243 338 37 339 242 340 242 340 37 339 36 341 242 340 36 341 241 342 241 342 36 341 35 343 241 342 35 343 240 344 240 344 35 343 34 345 240 344 34 345 239 346 239 346 34 345 33 347 239 346 33 347 238 348 238 348 33 347 32 349 238 348 32 349 31 350 238 348 31 350 237 351 237 351 31 350 30 352 237 351 30 352 236 353 236 353 30 352 29 354 236 353 29 354 235 355 235 355 29 354 28 356 235 355 28 356 234 357 234 357 28 356 27 358 234 357 27 358 233 359 233 359 27 358 26 360 233 359 26 360 232 361 232 361 26 360 25 362 232 361 25 362 231 363 231 363 25 362 24 364 231 363 24 364 23 365 231 363 23 365 230 366 230 366 23 365 22 367 230 366 22 367 229 368 229 368 22 367 21 369 229 368 21 369 228 370 228 370 21 369 20 371 228 370 20 371 227 372 227 372 20 371 19 373 227 372 19 373 226 374 226 374 19 373 18 375 226 374 18 375 225 376 225 376 18 375 17 377 225 376 17 377 224 378 224 378 17 377 16 379 224 378 16 379 15 380 224 378 15 380 223 381 223 381 15 380 14 382 223 381 14 382 222 383 222 383 14 382 13 384 222 383 13 384 221 385 221 385 13 384 12 386 221 385 12 386 220 387 220 387 12 386 11 388 220 387 11 388 219 389 219 389 11 388 10 390 219 389 10 390 218 391 218 391 10 390 9 392 218 391 9 392 217 393 217 393 9 392 8 394 217 393 8 394 7 395 217 393 7 395 216 396 216 396 7 395 6 397 216 396 6 397 215 398 215 398 6 397 5 399 215 398 5 399 214 400 214 400 5 399 4 401 214 400 4 401 213 402 213 402 4 401 3 403 213 402 3 403 212 404 212 404 3 403 2 405 212 404 2 405 211 406 211 406 2 405 1 210 211 406 1 210 210 212 303 512 211 513 302 514 302 514 211 513 210 515 302 514 210 515 301 516 211 513 303 512 212 517 212 517 303 512 304 518 212 517 304 518 213 519 213 519 304 518 305 520 213 519 305 520 214 521 214 521 305 520 306 522 214 521 306 522 215 523 215 523 306 522 307 524 215 523 307 524 216 525 216 525 307 524 308 526 216 525 308 526 217 527 217 527 308 526 309 528 217 527 309 528 218 529 218 529 309 528 310 530 218 529 310 530 219 531 219 531 310 530 311 532 219 531 311 532 220 533 220 533 311 532 312 534 220 533 312 534 221 535 221 535 312 534 313 536 221 535 313 536 222 537 222 537 313 536 314 538 222 537 314 538 223 539 223 539 314 538 315 540 223 539 315 540 224 541 224 541 315 540 316 542 224 541 316 542 225 543 225 543 316 542 317 544 225 543 317 544 226 545 226 545 317 544 318 546 226 545 318 546 227 547 227 547 318 546 319 548 227 547 319 548 228 549 228 549 319 548 320 550 228 549 320 550 229 551 229 551 320 550 321 552 229 551 321 552 230 553 230 553 321 552 322 554 230 553 322 554 231 555 231 555 322 554 323 556 231 555 323 556 232 557 232 557 323 556 324 558 232 557 324 558 233 559 233 559 324 558 325 560 233 559 325 560 234 561 234 561 325 560 326 562 234 561 326 562 235 563 235 563 326 562 327 564 235 563 327 564 236 565 236 565 327 564 328 566 236 565 328 566 237 567 237 567 328 566 329 568 237 567 329 568 238 569 238 569 329 568 330 570 238 569 330 570 239 571 239 571 330 570 331 572 239 571 331 572 240 573 240 573 331 572 332 574 240 573 332 574 241 575 241 575 332 574 242 576 242 576 332 574 333 577 242 576 333 577 243 578 243 578 333 577 334 579 243 578 334 579 244 580 244 580 334 579 335 581 244 580 335 581 245 582 245 582 335 581 336 583 245 582 336 583 246 584 246 584 336 583 337 585 246 584 337 585 247 586 247 586 337 585 338 587 247 586 338 587 248 588 248 588 338 587 339 589 248 588 339 589 249 590 249 590 339 589 340 591 249 590 340 591 250 592 250 592 340 591 341 593 250 592 341 593 251 594 251 594 341 593 342 595 251 594 342 595 252 596 252 596 342 595 343 597 252 596 343 597 253 598 253 598 343 597 344 599 253 598 344 599 254 600 254 600 344 599 345 601 254 600 345 601 255 602 255 602 345 601 346 603 255 602 346 603 256 604 256 604 346 603 347 605 256 604 347 605 257 606 257 606 347 605 348 607 257 606 348 607 258 608 258 608 348 607 349 609 258 608 349 609 259 610 259 610 349 609 350 611 259 610 350 611 260 612 260 612 350 611 351 613 260 612 351 613 261 614 261 614 351 613 352 615 261 614 352 615 262 616 262 616 352 615 353 617 262 616 353 617 263 618 263 618 353 617 354 619 263 618 354 619 264 620 264 620 354 619 355 621 264 620 355 621 265 622 265 622 355 621 356 623 265 622 356 623 266 624 266 624 356 623 357 625 266 624 357 625 267 626 267 626 357 625 358 627 267 626 358 627 268 628 268 628 358 627 359 629 268 628 359 629 269 630 269 630 359 629 360 631 269 630 360 631 270 632 270 632 360 631 361 633 270 632 361 633 271 634 271 634 361 633 272 635 272 635 361 633 362 636 272 635 362 636 273 637 273 637 362 636 363 638 273 637 363 638 274 639 274 639 363 638 364 640 274 639 364 640 275 641 275 641 364 640 365 642 275 641 365 642 276 643 276 643 365 642 366 644 276 643 366 644 277 645 277 645 366 644 367 646 277 645 367 646 278 647 278 647 367 646 368 648 278 647 368 648 279 649 279 649 368 648 369 650 279 649 369 650 280 651 280 651 369 650 370 652 280 651 370 652 281 653 281 653 370 652 371 654 281 653 371 654 282 655 282 655 371 654 372 656 282 655 372 656 283 657 283 657 372 656 373 658 283 657 373 658 284 659 284 659 373 658 374 660 284 659 374 660 285 661 285 661 374 660 375 662 285 661 375 662 286 663 286 663 375 662 376 664 286 663 376 664 287 665 287 665 376 664 377 666 287 665 377 666 288 667 288 667 377 666 378 668 288 667 378 668 289 669 289 669 378 668 379 670 289 669 379 670 290 671 290 671 379 670 380 672 290 671 380 672 291 673 291 673 380 672 381 674 291 673 381 674 292 675 292 675 381 674 382 676 292 675 382 676 293 677 293 677 382 676 383 678 293 677 383 678 294 679 294 679 383 678 384 680 294 679 384 680 295 681 295 681 384 680 385 682 295 681 385 682 296 683 296 683 385 682 386 684 296 683 386 684 297 685 297 685 386 684 387 686 297 685 387 686 298 687 298 687 387 686 388 688 298 687 388 688 299 689 299 689 388 688 389 690 299 689 389 690 300 691 300 691 389 690 390 692 300 691 390 692 301 516 301 516 390 692 302 514</p>
        </triangles>
        <triangles material="Steel_-_Satin" count="103">
          <input semantic="VERTEX" source="#base_link-mesh-vertices" offset="0"/>
          <input semantic="NORMAL" source="#base_link-mesh-normals" offset="1"/>
          <p>209 407 158 408 105 409 105 409 158 408 157 410 105 409 157 410 106 411 106 411 157 410 156 412 106 411 156 412 107 413 107 413 156 412 155 414 107 413 155 414 108 415 108 415 155 414 154 416 108 415 154 416 109 417 109 417 154 416 153 418 109 417 153 418 110 419 110 419 153 418 111 420 111 420 153 418 112 421 112 421 153 418 113 422 113 422 153 418 114 423 114 423 153 418 152 424 114 423 152 424 115 425 115 425 152 424 116 426 116 426 152 424 117 427 117 427 152 424 118 428 118 428 152 424 119 429 119 429 152 424 120 430 120 430 152 424 121 431 121 431 152 424 122 432 122 432 152 424 123 433 123 433 152 424 124 434 124 434 152 424 125 435 125 435 152 424 126 436 126 436 152 424 127 437 127 437 152 424 128 438 128 438 152 424 129 439 129 439 152 424 130 440 130 440 152 424 131 441 131 441 152 424 132 442 132 442 152 424 133 443 133 443 152 424 134 444 134 444 152 424 135 445 135 445 152 424 136 446 136 446 152 424 137 447 137 447 152 424 138 448 138 448 152 424 139 449 139 449 152 424 140 450 140 450 152 424 141 451 141 451 152 424 142 452 142 452 152 424 143 453 143 453 152 424 144 454 144 454 152 424 145 455 145 455 152 424 146 456 146 456 152 424 147 457 147 457 152 424 148 458 148 458 152 424 149 459 149 459 152 424 150 460 150 460 152 424 151 461 158 408 209 407 159 462 159 462 209 407 208 463 159 462 208 463 160 464 160 464 208 463 207 465 160 464 207 465 161 466 161 466 207 465 206 467 161 466 206 467 162 468 162 468 206 467 205 469 162 468 205 469 163 470 163 470 205 469 204 471 163 470 204 471 164 472 164 472 204 471 203 473 164 472 203 473 165 474 165 474 203 473 202 475 165 474 202 475 166 476 166 476 202 475 201 477 166 476 201 477 167 478 167 478 201 477 200 479 167 478 200 479 168 480 168 480 200 479 199 481 168 480 199 481 169 482 169 482 199 481 198 483 169 482 198 483 170 484 170 484 198 483 197 485 170 484 197 485 171 486 171 486 197 485 196 487 171 486 196 487 172 488 172 488 196 487 195 489 172 488 195 489 173 490 173 490 195 489 194 491 173 490 194 491 174 492 174 492 194 491 193 493 174 492 193 493 175 494 175 494 193 493 192 495 175 494 192 495 176 496 176 496 192 495 191 497 176 496 191 497 177 498 177 498 191 497 190 499 177 498 190 499 178 500 178 500 190 499 189 501 178 500 189 501 179 502 179 502 189 501 188 503 179 502 188 503 180 504 180 504 188 503 187 505 180 504 187 505 181 506 181 506 187 505 186 507 181 506 186 507 182 508 182 508 186 507 185 509 182 508 185 509 183 510 183 510 185 509 184 511</p>
        </triangles>
        <triangles material="Opaque_192_192_192_" count="87">
          <input semantic="VERTEX" source="#base_link-mesh-vertices" offset="0"/>
          <input semantic="NORMAL" source="#base_link-mesh-normals" offset="1"/>
          <p>390 693 347 694 302 695 302 695 347 694 346 696 302 695 346 696 303 697 303 697 346 696 345 698 303 697 345 698 304 699 304 699 345 698 344 700 304 699 344 700 305 701 305 701 344 700 343 702 305 701 343 702 306 703 306 703 343 702 342 704 306 703 342 704 307 705 307 705 342 704 341 706 307 705 341 706 308 707 308 707 341 706 340 708 308 707 340 708 309 709 309 709 340 708 339 710 309 709 339 710 310 711 310 711 339 710 338 712 310 711 338 712 311 713 311 713 338 712 337 714 311 713 337 714 312 715 312 715 337 714 336 716 312 715 336 716 313 717 313 717 336 716 335 718 313 717 335 718 314 719 314 719 335 718 334 720 314 719 334 720 315 721 315 721 334 720 333 722 315 721 333 722 316 723 316 723 333 722 332 724 316 723 332 724 317 725 317 725 332 724 331 726 317 725 331 726 318 727 318 727 331 726 330 728 318 727 330 728 319 729 319 729 330 728 329 730 319 729 329 730 320 731 320 731 329 730 328 732 320 731 328 732 321 733 321 733 328 732 327 734 321 733 327 734 322 735 322 735 327 734 326 736 322 735 326 736 323 737 323 737 326 736 325 738 323 737 325 738 324 739 347 694 390 693 348 740 348 740 390 693 389 741 348 740 389 741 349 742 349 742 389 741 388 743 349 742 388 743 387 744 387 744 386 745 349 742 349 742 386 745 385 746 349 742 385 746 384 747 384 747 383 748 349 742 349 742 383 748 382 749 349 742 382 749 381 750 381 750 380 751 349 742 349 742 380 751 379 752 349 742 379 752 378 753 378 753 377 754 349 742 349 742 377 754 376 755 349 742 376 755 375 756 375 756 374 757 349 742 349 742 374 757 373 758 349 742 373 758 372 759 372 759 371 760 349 742 349 742 371 760 370 761 349 742 370 761 369 762 369 762 368 763 349 742 349 742 368 763 350 764 350 764 368 763 367 765 350 764 367 765 366 766 366 766 365 767 350 764 350 764 365 767 364 768 350 764 364 768 363 769 363 769 362 770 350 764 350 764 362 770 361 771 350 764 361 771 360 772 360 772 359 773 350 764 350 764 359 773 358 774 350 764 358 774 357 775 357 775 356 776 350 764 350 764 356 776 355 777 350 764 355 777 354 778 354 778 353 779 350 764 350 764 353 779 352 780 350 764 352 780 351 781</p>
        </triangles>
      </mesh>
    </geometry>
  </library_geometries>
  <library_visual_scenes>
    <visual_scene id="Scene" name="Scene">
      <node id="base_link-node" name="base_link" type="NODE">
        <instance_geometry url="#base_link-mesh">
          <bind_material>
            <technique_common>
              <instance_material symbol="Opaque_128_0_0_" target="#Opaque_128_0_0_"/>
              <instance_material symbol="Steel_-_Satin" target="#Steel_-_Satin"/>
              <instance_material symbol="Opaque_192_192_192_" target="#Opaque_192_192_192_"/>
            </technique_common>
          </bind_material>
        </instance_geometry>
      </node>
    </visual_scene>
  </library_visual_scenes>
  <scene>
    <instance_visual_scene url="#Scene"/>
  </scene>
</COLLADA>
